<svg width="31" height="24" viewBox="0 0 31 24" fill="none" xmlns="http://www.w3.org/2000/svg">
<path d="M26.2585 2.01023C24.2518 1.07136 22.1063 0.389286 19.863 0C19.5873 0.498875 19.2659 1.16787 19.044 1.7011C16.6587 1.34289 14.2963 1.34289 11.9567 1.7011C11.7348 1.16787 11.4053 0.498875 11.1279 0C8.88296 0.389286 6.73425 1.07301 4.72749 2.01515C0.679718 8.1325 -0.416659 14.0961 0.131528 19.9763C2.81536 21.9816 5.41763 23.1985 7.97584 23.9967C8.60723 23.1282 9.1701 22.204 9.65629 21.2292C8.73286 20.8775 7.84694 20.4441 7.01161 19.9419C7.2335 19.7784 7.45049 19.605 7.65933 19.4283C12.7594 21.8148 18.3017 21.8148 23.3414 19.4283C23.5535 19.605 23.7705 19.7767 23.9891 19.9419C23.1505 20.4473 22.263 20.8808 21.3395 21.2325C21.8241 22.204 22.3853 23.1298 23.02 24C25.5798 23.2034 28.1837 21.9849 30.8692 19.9779C31.5104 13.1605 29.7663 7.25087 26.2585 2.01023ZM10.3497 16.3615C8.81932 16.3615 7.56306 14.9319 7.56306 13.1916C7.56306 11.4512 8.79158 10.0184 10.3497 10.0184C11.9078 10.0184 13.164 11.448 13.1363 13.1916C13.1396 14.9319 11.9078 16.3615 10.3497 16.3615ZM20.6478 16.3615C19.1174 16.3615 17.8612 14.9319 17.8612 13.1916C17.8612 11.4512 19.0897 10.0184 20.6478 10.0184C22.2059 10.0184 23.4621 11.448 23.4344 13.1916C23.4344 14.9319 22.2059 16.3615 20.6478 16.3615Z" fill="#FF6161"/>
</svg>
