<svg width="36" height="36" viewBox="0 0 36 36" fill="none" xmlns="http://www.w3.org/2000/svg">
<path fill-rule="evenodd" clip-rule="evenodd" d="M33.9371 2.18944C33.9603 2.21005 33.9822 2.23209 34.0027 2.2554C34.0519 2.31139 34.0914 2.37297 34.121 2.43791C34.1646 2.53293 34.1889 2.63863 34.1889 2.75V10.4165C34.1889 10.8307 33.8531 11.1665 33.4389 11.1665C33.0247 11.1665 32.6889 10.8307 32.6889 10.4165V4.55969L21.5016 15.7386C21.2086 16.0314 20.7338 16.0313 20.441 15.7382C20.1482 15.4452 20.1484 14.9704 20.4414 14.6776L31.6272 3.5H25.7667C25.3524 3.5 25.0167 3.16421 25.0167 2.75C25.0167 2.33579 25.3524 2 25.7667 2L33.4387 2C33.4387 2 33.4388 2 33.4389 2C33.6301 2 33.8047 2.07159 33.9371 2.18944ZM2 6.58327C2 4.06023 4.06256 2 6.58611 2H18.0944C18.5086 2 18.8444 2.33579 18.8444 2.75C18.8444 3.16421 18.5086 3.5 18.0944 3.5H6.58611C4.88994 3.5 3.5 4.88971 3.5 6.58327V29.5829C3.5 31.2764 4.88994 32.6661 6.58611 32.6661H29.6027C31.2989 32.6661 32.6889 31.2764 32.6889 29.5829V18.0831C32.6889 17.6688 33.0246 17.3331 33.4389 17.3331C33.8531 17.3331 34.1889 17.6688 34.1889 18.0831V29.5829C34.1889 32.1059 32.1263 34.1661 29.6027 34.1661H6.58611C4.06256 34.1661 2 32.1059 2 29.5829V6.58327Z" fill="white"/>
<path d="M34.0027 2.2554L32.8755 3.24503L32.876 3.24565L34.0027 2.2554ZM33.9371 2.18944L34.9341 1.06868L34.9341 1.06867L33.9371 2.18944ZM34.121 2.43791L32.7569 3.06173L32.7574 3.06278L34.121 2.43791ZM32.6889 4.55969H34.1889C34.1889 3.9531 33.8235 3.40621 33.2631 3.17398C32.7028 2.94174 32.0577 3.06987 31.6286 3.49864L32.6889 4.55969ZM21.5016 15.7386L22.5619 16.7997L22.5619 16.7997L21.5016 15.7386ZM20.441 15.7382L19.3799 16.7985L19.3799 16.7985L20.441 15.7382ZM20.4414 14.6776L19.3811 13.6165L19.3811 13.6165L20.4414 14.6776ZM31.6272 3.5L32.6875 4.56105C33.1167 4.13214 33.2453 3.48688 33.0132 2.92623C32.7811 2.36558 32.234 2 31.6272 2V3.5ZM25.7667 2L25.7667 3.5L25.7667 2ZM33.4387 2L33.4387 0.5L33.4387 2ZM35.1299 1.26577C35.0687 1.19611 35.0033 1.13028 34.9341 1.06868L32.9402 3.31019C32.9173 3.28982 32.8957 3.26807 32.8755 3.24503L35.1299 1.26577ZM32.876 3.24565C32.8273 3.19026 32.7873 3.12806 32.7569 3.06173L35.4852 1.81408C35.3954 1.61787 35.2765 1.43253 35.1294 1.26515L32.876 3.24565ZM35.6889 2.75C35.6889 2.41866 35.6163 2.10018 35.4847 1.81303L32.7574 3.06278C32.7129 2.96569 32.6889 2.85861 32.6889 2.75H35.6889ZM35.6889 10.4165V2.75H32.6889V10.4165H35.6889ZM33.4389 12.6665C34.6815 12.6665 35.6889 11.6592 35.6889 10.4165H32.6889C32.6889 10.0023 33.0247 9.66653 33.4389 9.66653V12.6665ZM31.1889 10.4165C31.1889 11.6592 32.1962 12.6665 33.4389 12.6665V9.66653C33.8531 9.66653 34.1889 10.0023 34.1889 10.4165H31.1889ZM31.1889 4.55969V10.4165H34.1889V4.55969H31.1889ZM31.6286 3.49864L20.4414 14.6776L22.5619 16.7997L33.7491 5.62074L31.6286 3.49864ZM20.4414 14.6776C20.7344 14.3848 21.2092 14.385 21.502 14.678L19.3799 16.7985C20.2583 17.6775 21.6829 17.678 22.5619 16.7997L20.4414 14.6776ZM21.502 14.678C21.7948 14.971 21.7946 15.4459 21.5016 15.7386L19.3811 13.6165C18.5021 14.4949 18.5016 15.9195 19.3799 16.7985L21.502 14.678ZM21.5016 15.7386L32.6875 4.56105L30.567 2.43895L19.3811 13.6165L21.5016 15.7386ZM25.7667 5H31.6272V2H25.7667V5ZM23.5167 2.75C23.5167 3.99264 24.524 5 25.7667 5V2C26.1809 2 26.5167 2.33579 26.5167 2.75H23.5167ZM25.7667 0.5C24.524 0.5 23.5167 1.50736 23.5167 2.75H26.5167C26.5167 3.16421 26.1809 3.5 25.7667 3.5V0.5ZM33.4387 0.5L25.7667 0.5L25.7667 3.5L33.4387 3.5L33.4387 0.5ZM33.4387 3.5C33.4387 3.5 33.4387 3.5 33.4388 3.5C33.4388 3.5 33.4388 3.5 33.4389 3.5V0.5C33.4388 0.5 33.4388 0.5 33.4388 0.5C33.4388 0.5 33.4387 0.5 33.4387 0.5V3.5ZM34.9341 1.06867C34.5376 0.715994 34.0117 0.5 33.4389 0.5V3.5C33.2486 3.5 33.0717 3.42719 32.9402 3.3102L34.9341 1.06867ZM6.58611 0.5C3.23523 0.5 0.5 3.23071 0.5 6.58327H3.5C3.5 4.88976 4.88989 3.5 6.58611 3.5V0.5ZM18.0944 0.5H6.58611V3.5H18.0944V0.5ZM20.3444 2.75C20.3444 1.50736 19.3371 0.5 18.0944 0.5V3.5C17.6802 3.5 17.3444 3.16421 17.3444 2.75H20.3444ZM18.0944 5C19.3371 5 20.3444 3.99264 20.3444 2.75H17.3444C17.3444 2.33579 17.6802 2 18.0944 2V5ZM6.58611 5H18.0944V2H6.58611V5ZM5 6.58327C5 5.7191 5.71739 5 6.58611 5V2C4.06248 2 2 4.06031 2 6.58327H5ZM5 29.5829V6.58327H2V29.5829H5ZM6.58611 31.1661C5.71739 31.1661 5 30.447 5 29.5829H2C2 32.1058 4.06248 34.1661 6.58611 34.1661V31.1661ZM29.6027 31.1661H6.58611V34.1661H29.6027V31.1661ZM31.1889 29.5829C31.1889 30.447 30.4715 31.1661 29.6027 31.1661V34.1661C32.1264 34.1661 34.1889 32.1058 34.1889 29.5829H31.1889ZM31.1889 18.0831V29.5829H34.1889V18.0831H31.1889ZM33.4389 15.8331C32.1962 15.8331 31.1889 16.8404 31.1889 18.0831H34.1889C34.1889 18.4973 33.8531 18.8331 33.4389 18.8331V15.8331ZM35.6889 18.0831C35.6889 16.8404 34.6815 15.8331 33.4389 15.8331V18.8331C33.0246 18.8331 32.6889 18.4973 32.6889 18.0831H35.6889ZM35.6889 29.5829V18.0831H32.6889V29.5829H35.6889ZM29.6027 35.6661C32.9536 35.6661 35.6889 32.9354 35.6889 29.5829H32.6889C32.6889 31.2764 31.299 32.6661 29.6027 32.6661V35.6661ZM6.58611 35.6661H29.6027V32.6661H6.58611V35.6661ZM0.5 29.5829C0.5 32.9354 3.23523 35.6661 6.58611 35.6661V32.6661C4.88989 32.6661 3.5 31.2764 3.5 29.5829H0.5ZM0.5 6.58327V29.5829H3.5V6.58327H0.5Z" fill="white"/>
</svg>
