<svg width="31" height="31" viewBox="0 0 31 31" fill="none" xmlns="http://www.w3.org/2000/svg">
<path d="M10.3695 24.9601C10.3695 25.088 10.2261 25.1906 10.044 25.1906C9.83863 25.21 9.69331 25.1073 9.69331 24.9601C9.69331 24.8322 9.83669 24.7295 10.0188 24.7295C10.2068 24.7102 10.3695 24.8128 10.3695 24.9601ZM8.42425 24.6714C8.37969 24.7993 8.50562 24.9465 8.69356 24.9853C8.85631 25.0492 9.04425 24.9853 9.08106 24.8574C9.11787 24.7295 8.99969 24.5823 8.81175 24.5242C8.649 24.4796 8.46881 24.5435 8.42425 24.6714ZM11.1871 24.5629C11.005 24.6075 10.881 24.7295 10.9004 24.8768C10.9197 25.0046 11.0825 25.088 11.2685 25.0434C11.4506 24.9988 11.5746 24.8768 11.5553 24.7489C11.5359 24.6268 11.3673 24.5435 11.1871 24.5629ZM15.3004 0C6.63206 0 0 6.75005 0 15.641C0 22.7495 4.36325 28.833 10.5942 30.9739C11.3944 31.1212 11.6754 30.6155 11.6754 30.1989C11.6754 29.8018 11.656 27.6086 11.656 26.264C11.656 26.264 7.28112 27.225 6.36275 24.3537C6.36275 24.3537 5.64975 22.4879 4.62481 22.0074C4.62481 22.0074 3.193 21.0019 4.72556 21.0193C4.72556 21.0193 6.28138 21.1472 7.13775 22.6739C8.50562 25.148 10.7996 24.437 11.6947 24.0127C11.8381 22.9878 12.245 22.2748 12.6945 21.8524C9.20119 21.4553 5.67494 20.936 5.67494 14.7691C5.67494 13.0061 6.14963 12.1226 7.14938 10.9931C6.98663 10.5765 6.45575 8.85799 7.31212 6.64156C8.618 6.22501 11.625 8.37169 11.625 8.37169C12.8747 8.01327 14.2193 7.82727 15.5504 7.82727C16.8814 7.82727 18.2261 8.01327 19.4758 8.37169C19.4758 8.37169 22.4827 6.21726 23.7886 6.64156C24.645 8.86574 24.1141 10.5765 23.9514 10.9931C24.9511 12.1284 25.5634 13.0119 25.5634 14.7691C25.5634 20.9554 21.8821 21.4475 18.3888 21.8524C18.9643 22.3581 19.4506 23.321 19.4506 24.8264C19.4506 26.9867 19.4312 29.6603 19.4312 30.1854C19.4312 30.6019 19.7179 31.1076 20.5123 30.9603C26.7627 28.833 31 22.7495 31 15.641C31 6.75005 23.9688 0 15.3004 0ZM6.07406 22.1082C5.99269 22.1721 6.01206 22.3194 6.11862 22.4414C6.21937 22.5441 6.36275 22.5887 6.44412 22.5053C6.5255 22.4414 6.50612 22.2942 6.39956 22.1721C6.29881 22.0694 6.15544 22.0249 6.07406 22.1082ZM5.39981 21.5889C5.35525 21.6722 5.41919 21.7749 5.54319 21.8389C5.64394 21.9028 5.76794 21.8834 5.8125 21.7943C5.85706 21.711 5.79313 21.6083 5.66913 21.5444C5.54319 21.5056 5.44437 21.525 5.39981 21.5889ZM7.4245 23.8712C7.32375 23.9546 7.3625 24.1464 7.50588 24.2684C7.64925 24.4157 7.83138 24.435 7.91275 24.3324C7.99413 24.249 7.95731 24.0572 7.83137 23.9352C7.69381 23.7879 7.50588 23.7686 7.4245 23.8712ZM6.71344 22.9277C6.61269 22.9916 6.61269 23.1583 6.71344 23.3055C6.81419 23.4528 6.98275 23.5167 7.06412 23.4528C7.16487 23.3694 7.16487 23.2028 7.06412 23.0556C6.97694 22.9083 6.81419 22.8444 6.71344 22.9277Z" fill="#FF6161"/>
</svg>
