<svg width="34" height="34" viewBox="0 0 34 34" fill="none" xmlns="http://www.w3.org/2000/svg">
<path d="M11.2278 27.0261C11.2278 27.1645 11.0726 27.2757 10.8754 27.2757C10.653 27.2967 10.4956 27.1855 10.4956 27.0261C10.4956 26.8876 10.6509 26.7764 10.8481 26.7764C11.0516 26.7555 11.2278 26.8666 11.2278 27.0261ZM9.12154 26.7135C9.07329 26.852 9.20965 27.0114 9.41315 27.0534C9.58937 27.1226 9.79286 27.0534 9.83272 26.9149C9.87258 26.7764 9.74461 26.617 9.54111 26.5541C9.36489 26.5058 9.16979 26.5751 9.12154 26.7135ZM12.1131 26.596C11.9159 26.6443 11.7816 26.7764 11.8026 26.9359C11.8236 27.0743 11.9998 27.1645 12.2012 27.1163C12.3984 27.068 12.5327 26.9359 12.5117 26.7974C12.4907 26.6653 12.3082 26.5751 12.1131 26.596ZM16.5669 0C7.18101 0 0 7.30877 0 16.9356C0 24.6325 4.7244 31.2196 11.4712 33.5377C12.3376 33.6971 12.6418 33.1496 12.6418 32.6986C12.6418 32.2685 12.6208 29.8938 12.6208 28.4379C12.6208 28.4379 7.8838 29.4784 6.88941 26.3695C6.88941 26.3695 6.11739 24.3493 5.00762 23.829C5.00762 23.829 3.45729 22.7403 5.11671 22.7591C5.11671 22.7591 6.8013 22.8976 7.72856 24.5507C9.20965 27.2296 11.6935 26.4597 12.6627 26.0003C12.818 24.8905 13.2585 24.1185 13.7452 23.6612C9.96279 23.2311 6.14466 22.6689 6.14466 15.9916C6.14466 14.0826 6.65864 13.126 7.74114 11.903C7.56492 11.4519 6.9901 9.59119 7.91736 7.19129C9.33133 6.74026 12.5872 9.06464 12.5872 9.06464C13.9403 8.67654 15.3963 8.47515 16.8375 8.47515C18.2787 8.47515 19.7347 8.67654 21.0878 9.06464C21.0878 9.06464 24.3437 6.73187 25.7577 7.19129C26.6849 9.59958 26.1101 11.4519 25.9339 11.903C27.0164 13.1323 27.6793 14.0889 27.6793 15.9916C27.6793 22.6899 23.6933 23.2228 19.9109 23.6612C20.534 24.2087 21.0605 25.2513 21.0605 26.8813C21.0605 29.2204 21.0395 32.1154 21.0395 32.6839C21.0395 33.1349 21.35 33.6824 22.2102 33.523C28.9779 31.2196 33.5659 24.6325 33.5659 16.9356C33.5659 7.30877 25.9528 0 16.5669 0ZM6.57682 23.9381C6.48871 24.0073 6.50969 24.1668 6.62508 24.2989C6.73416 24.4101 6.88941 24.4584 6.97752 24.3682C7.06563 24.2989 7.04465 24.1395 6.92927 24.0073C6.82018 23.8961 6.66493 23.8479 6.57682 23.9381ZM5.84677 23.3759C5.79851 23.4661 5.86774 23.5773 6.00201 23.6465C6.1111 23.7157 6.24536 23.6948 6.29361 23.5983C6.34186 23.5081 6.27263 23.3969 6.13837 23.3276C6.00201 23.2857 5.89502 23.3067 5.84677 23.3759ZM8.03904 25.8471C7.92995 25.9373 7.97191 26.145 8.12715 26.2772C8.28239 26.4366 8.47959 26.4576 8.5677 26.3464C8.65581 26.2562 8.61595 26.0485 8.47959 25.9163C8.33064 25.7569 8.12715 25.7359 8.03904 25.8471ZM7.26912 24.8255C7.16003 24.8947 7.16003 25.0751 7.26912 25.2346C7.37821 25.394 7.56073 25.4632 7.64884 25.394C7.75793 25.3038 7.75793 25.1234 7.64884 24.9639C7.55443 24.8045 7.37821 24.7353 7.26912 24.8255Z" fill="white"/>
</svg>
