<svg width="33" height="29" viewBox="0 0 33 29" fill="none" xmlns="http://www.w3.org/2000/svg">
<path fill-rule="evenodd" clip-rule="evenodd" d="M2.50016 3.60058C2.50016 2.99274 2.99291 2.5 3.60074 2.5H29.5088C30.1166 2.5 30.6094 2.99274 30.6094 3.60058V6.83817L16.5548 13.8655L2.50016 6.83818V3.60058ZM1.00016 7.28545C0.999945 7.29591 0.999946 7.30636 1.00016 7.31679V25.8075C1.00016 27.2437 2.16448 28.4081 3.60074 28.4081H29.5088C30.9451 28.4081 32.1094 27.2437 32.1094 25.8075V7.31678C32.1096 7.30636 32.1096 7.29591 32.1094 7.28546V3.60058C32.1094 2.16432 30.9451 1 29.5088 1H3.60074C2.16448 1 1.00016 2.16432 1.00016 3.60058V7.28545ZM30.6094 8.51523V25.8075C30.6094 26.4153 30.1166 26.9081 29.5088 26.9081H3.60074C2.99291 26.9081 2.50016 26.4153 2.50016 25.8075V8.51523L16.2194 15.3748C16.4305 15.4804 16.679 15.4804 16.8902 15.3748L30.6094 8.51523Z" fill="#FF6161"/>
<path d="M30.6094 6.83817L30.833 7.28539C31.0024 7.20069 31.1094 7.02756 31.1094 6.83817H30.6094ZM16.5548 13.8655L16.3312 14.3127C16.4719 14.3831 16.6376 14.3831 16.7784 14.3127L16.5548 13.8655ZM2.50016 6.83818H2.00016C2.00016 7.02756 2.10717 7.20069 2.27656 7.28539L2.50016 6.83818ZM1.00016 7.31679L1.50027 7.31679L1.50005 7.30631L1.00016 7.31679ZM1.00016 7.28545L1.50016 7.29594V7.28545H1.00016ZM32.1094 7.31678L31.6094 7.30626V7.31678H32.1094ZM32.1094 7.28546L31.6093 7.28546L31.6095 7.29595L32.1094 7.28546ZM30.6094 8.51523H31.1094C31.1094 8.34194 31.0197 8.181 30.8723 8.0899C30.7248 7.9988 30.5408 7.99052 30.3858 8.06801L30.6094 8.51523ZM2.50016 8.51523L2.72377 8.06801C2.56878 7.99052 2.38471 7.9988 2.2373 8.0899C2.08989 8.181 2.00016 8.34194 2.00016 8.51523H2.50016ZM16.2194 15.3748L15.9958 15.822L16.2194 15.3748ZM16.8902 15.3748L16.6666 14.9276L16.8902 15.3748ZM3.60074 2C2.71677 2 2.00016 2.7166 2.00016 3.60058H3.00016C3.00016 3.26889 3.26905 3 3.60074 3V2ZM29.5088 2H3.60074V3H29.5088V2ZM31.1094 3.60058C31.1094 2.7166 30.3928 2 29.5088 2V3C29.8405 3 30.1094 3.26889 30.1094 3.60058H31.1094ZM31.1094 6.83817V3.60058H30.1094V6.83817H31.1094ZM16.7784 14.3127L30.833 7.28539L30.3858 6.39096L16.3312 13.4183L16.7784 14.3127ZM2.27656 7.28539L16.3312 14.3127L16.7784 13.4183L2.72377 6.39096L2.27656 7.28539ZM2.00016 3.60058V6.83818H3.00016V3.60058H2.00016ZM1.50005 7.30631C1.49998 7.30285 1.49998 7.29939 1.50005 7.29594L0.500274 7.27496C0.499908 7.29243 0.499909 7.30987 0.500274 7.32727L1.50005 7.30631ZM1.50016 25.8075V7.31679H0.500164V25.8075H1.50016ZM3.60074 27.9081C2.44062 27.9081 1.50016 26.9676 1.50016 25.8075H0.500164C0.500164 27.5199 1.88834 28.9081 3.60074 28.9081V27.9081ZM29.5088 27.9081H3.60074V28.9081H29.5088V27.9081ZM31.6094 25.8075C31.6094 26.9676 30.6689 27.9081 29.5088 27.9081V28.9081C31.2212 28.9081 32.6094 27.5199 32.6094 25.8075H31.6094ZM31.6094 7.31678V25.8075H32.6094V7.31678H31.6094ZM31.6095 7.29595C31.6096 7.29942 31.6096 7.30286 31.6095 7.30627L32.6093 7.3273C32.6096 7.30985 32.6096 7.29241 32.6093 7.27497L31.6095 7.29595ZM31.6094 3.60058V7.28546H32.6094V3.60058H31.6094ZM29.5088 1.5C30.6689 1.5 31.6094 2.44046 31.6094 3.60058H32.6094C32.6094 1.88818 31.2212 0.5 29.5088 0.5V1.5ZM3.60074 1.5H29.5088V0.5H3.60074V1.5ZM1.50016 3.60058C1.50016 2.44046 2.44062 1.5 3.60074 1.5V0.5C1.88834 0.5 0.500164 1.88818 0.500164 3.60058H1.50016ZM1.50016 7.28545V3.60058H0.500164V7.28545H1.50016ZM31.1094 25.8075V8.51523H30.1094V25.8075H31.1094ZM29.5088 27.4081C30.3928 27.4081 31.1094 26.6915 31.1094 25.8075H30.1094C30.1094 26.1392 29.8405 26.4081 29.5088 26.4081V27.4081ZM3.60074 27.4081H29.5088V26.4081H3.60074V27.4081ZM2.00016 25.8075C2.00016 26.6915 2.71677 27.4081 3.60074 27.4081V26.4081C3.26905 26.4081 3.00016 26.1392 3.00016 25.8075H2.00016ZM2.00016 8.51523V25.8075H3.00016V8.51523H2.00016ZM16.443 14.9276L2.72377 8.06801L2.27656 8.96244L15.9958 15.822L16.443 14.9276ZM16.6666 14.9276C16.5962 14.9628 16.5134 14.9628 16.443 14.9276L15.9958 15.822C16.3477 15.998 16.7619 15.998 17.1138 15.822L16.6666 14.9276ZM30.3858 8.06801L16.6666 14.9276L17.1138 15.822L30.833 8.96244L30.3858 8.06801Z" fill="#FF6161"/>
</svg>
