<svg width="750" height="800" viewBox="0 0 750 800" fill="none" xmlns="http://www.w3.org/2000/svg">
  <path d="M691.156 277.277C660.46 229.911 617.767 181.819 564.263 134.339C473.573 53.8564 381.547 2.00978 380.628 1.49472C377.066 -0.498239 372.722 -0.498239 369.16 1.49472C368.241 2.00978 276.213 53.8564 185.525 134.339C132.02 181.82 89.3276 229.911 58.6317 277.277C19.726 337.308 1.94303e-08 396.449 1.94303e-08 453.058C-0.00156554 568.396 94.6035 662.231 210.888 662.231C246.918 662.231 281.409 653.415 312.276 636.497C292.438 689.639 261.918 738.821 222.899 780.203C219.684 783.613 218.804 788.607 220.661 792.911C222.517 797.214 226.755 800 231.441 800H520.441C525.129 800 529.365 797.213 531.222 792.911C533.079 788.609 532.199 783.613 528.983 780.203C490.312 739.19 459.961 690.459 440.11 637.828C470.364 653.872 503.969 662.231 538.896 662.231C655.181 662.231 749.786 568.396 749.786 453.058C749.788 396.449 730.062 337.308 691.156 277.277Z" fill="#0F0F0F" style="mix-blend-mode:exclusion"/>
</svg>
